PathFileType	4	(x/y/z)	S02_PSF_T01
DataRate	CameraRate	NumFrames	NumMarkers	Units	OrigDataRate	OrigDataStartFrame	OrigNumFrames
240	240	11	51	mm	240	50	398
Frame#	Time	Sternum			R.Acromium			L.Acromium			Top.Head			R.ASIS			L.ASIS			R.PSIS			L.PSIS			R.Great.Tro			L.Great.Tro			R.Iliac.Crest			L.Iliac.Crest			V.Sacral			R.Thigh.Upper.Post			R.Thigh.Lower.Ant			R.Thigh.Lower.Post			R.Thigh.Upper.Ant			R.Knee.Lat			R.Knee.Med			R.Shank.Upper.Post			R.Shank.Lower.Ant			R.Shank.Lower.Post			R.Shank.Upper.Ant			R.Ankle.Lat			R.Ankle.Med			R.Heel.Upper			R.Heel.Med			R.Heel.Lat			R.Toe.Lat			R.Toe.Med			R.Toe.Tip			L.Thigh.Upper.Post			L.Thigh.Lower.Ant			L.Thigh.Lower.Post			L.Thigh.Upper.Ant			L.Knee.Lat			L.Knee.Med			L.Shank.Upper.Post			L.Shank.Lower.Ant			L.Shank.Lower.Post			L.Shank.Upper.Ant			L.Ankle.Lat			L.Ankle.Med			L.Heel.Upper			L.Heel.Med			L.Heel.Lat			L.Toe.Lat			L.Toe.Med			L.Toe.Tip			Cervical.Spine			Back			
		X1	Y1	Z1	X2	Y2	Z2	X3	Y3	Z3	X4	Y4	Z4	X5	Y5	Z5	X6	Y6	Z6	X7	Y7	Z7	X8	Y8	Z8	X9	Y9	Z9	X10	Y10	Z10	X11	Y11	Z11	X12	Y12	Z12	X13	Y13	Z13	X14	Y14	Z14	X15	Y15	Z15	X16	Y16	Z16	X17	Y17	Z17	X18	Y18	Z18	X19	Y19	Z19	X20	Y20	Z20	X21	Y21	Z21	X22	Y22	Z22	X23	Y23	Z23	X24	Y24	Z24	X25	Y25	Z25	X26	Y26	Z26	X27	Y27	Z27	X28	Y28	Z28	X29	Y29	Z29	X30	Y30	Z30	X31	Y31	Z31	X32	Y32	Z32	X33	Y33	Z33	X34	Y34	Z34	X35	Y35	Z35	X36	Y36	Z36	X37	Y37	Z37	X38	Y38	Z38	X39	Y39	Z39	X40	Y40	Z40	X41	Y41	Z41	X42	Y42	Z42	X43	Y43	Z43	X44	Y44	Z44	X45	Y45	Z45	X46	Y46	Z46	X47	Y47	Z47	X48	Y48	Z48	X49	Y49	Z49	X50	Y50	Z50	X51	Y51	Z51	

50	0.20417	-1212.5	1089.6	312.16	-1324.5	1333.7	448.44	-1317.3	1326.2	152.42	-1298.1	1616	303.78	NaN	NaN	NaN	NaN	NaN	NaN	-1464.5	952.1	350.76	-1462.3	961.12	276.84	-1331.3	775.37	506.72	-1323.6	816.39	113.25	-1377.6	957.73	475.4	-1348.4	968.93	138.75	-1488.3	909.4	301.49	-1317.7	593.61	508.69	-1250.5	515	495.83	-1322.2	503	497.3	-1247.4	604.55	503.21	-1311.2	428.9	497.33	-1286.9	405.09	352.64	NaN	NaN	NaN	-1526.2	254.69	444.79	-1556.7	314.09	446.71	-1474.5	296.47	467.26	-1618.8	245.3	430.78	-1585.4	242.93	349.83	-1644.2	295.87	373.45	-1658.7	275.72	338.58	-1682.6	281.71	401.35	-1638.8	123.79	442.62	-1610.9	98.646	340.31	-1578.7	60.554	399.2	-1305.2	591.1	146.17	-1211.2	535.43	165.02	-1285.3	506.65	175.47	-1240.6	621.97	136.65	-1213.1	451.42	182.8	-1225.1	459.07	319.22	-1288.6	277.89	192.23	-1219	194.34	216.53	NaN	NaN	NaN	-1226	267.09	195.62	-1268.5	97.171	236.7	-1255.2	96.414	317.86	-1326.4	65.661	273.83	-1316.6	41.02	306.99	-1320.4	37.652	245.79	-1154.2	35.337	214.36	-1132.8	44.461	322.92	-1073.2	62.146	275.94	-1408.5	1390.8	298.43	-1480.7	1138.9	311.16
51	0.20833	-1207.1	1090.5	312.08	-1318.7	1334.8	448.48	-1311.9	1327.1	152.17	-1292.3	1617.1	303.43	NaN	NaN	NaN	NaN	NaN	NaN	-1459.1	953.24	350.54	-1457.1	962.23	276.64	-1325.7	776.73	506.47	-1319.3	817.07	113.09	-1372.2	958.83	475.15	-1343.4	969.87	138.47	-1483.3	910.61	301.31	-1308.5	595.27	508.89	-1240.6	517.48	496.04	-1312	504.59	497.49	-1238.7	607.07	503.36	-1299.5	430.67	497.62	-1275	406.69	352.75	NaN	NaN	NaN	-1513.5	255.24	444.98	-1544.6	314.5	446.77	-1461.6	297.21	467.27	-1606.1	245.39	430.84	-1572.7	242.92	350	-1632.5	295.1	373.07	-1646.6	274.41	338.36	-1670.7	280.87	401.13	-1624.6	123.84	443.67	-1596.1	98.304	341.52	-1563.2	61.199	400.78	-1302.7	591.75	146.28	-1209.1	535.28	164.94	-1283.5	507.12	175.51	-1237.9	622.05	136.6	-1211.7	451.32	182.75	-1223.5	459.02	319.18	-1287.8	278.21	192.26	-1218.8	194.31	216.44	NaN	NaN	NaN	-1225.5	267.07	195.54	-1268.4	97.255	236.73	-1255.2	96.512	317.88	-1326.4	65.713	273.85	-1316.6	41.095	306.97	-1320.4	37.732	245.79	-1154.2	35.345	214.35	-1132.8	44.521	323.04	-1073.1	62.118	275.95	-1403	1391.9	298.13	-1475.3	1140.1	310.67
52	0.2125	-1201.7	1091.5	312.01	-1312.9	1335.8	448.53	-1306.5	1328.1	151.93	-1286.6	1618.2	303.11	NaN	NaN	NaN	NaN	NaN	NaN	-1453.8	954.43	350.3	-1451.9	963.38	276.41	-1320	778.11	506.21	-1315.1	817.7	112.96	-1366.8	960	474.88	-1338.4	970.79	138.19	-1478.4	911.87	301.12	-1299.4	596.98	509.08	-1230.7	520.02	496.18	-1301.8	506.25	497.65	-1230.1	609.65	503.44	-1287.8	432.52	497.84	-1263.3	408.44	352.81	NaN	NaN	NaN	-1500.7	255.61	445.16	-1532.5	314.71	446.81	-1448.7	297.85	467.24	-1593.3	245.19	430.9	-1560	242.66	350.17	-1620.7	293.98	372.72	-1634.4	272.73	338.17	-1658.7	279.64	400.93	-1610	123.62	444.73	-1580.9	97.757	342.69	-1547.4	61.705	402.34	-1300.2	592.39	146.43	-1207	535.13	164.88	-1281.7	507.61	175.59	-1235.1	622.12	136.58	-1210.3	451.23	182.72	-1221.8	459.01	319.16	-1287.1	278.55	192.3	-1218.5	194.28	216.38	NaN	NaN	NaN	-1225.1	267.07	195.47	-1268.4	97.341	236.77	-1255.1	96.609	317.91	-1326.4	65.771	273.87	-1316.6	41.171	306.96	-1320.3	37.82	245.78	-1154.2	35.352	214.34	-1132.8	44.582	323.17	-1073.1	62.088	275.96	-1397.6	1393.1	297.84	-1470	1141.2	310.17
53	0.21667	-1196.4	1092.5	311.94	-1307.2	1336.9	448.57	-1301.1	1329	151.7	-1280.9	1619.2	302.82	NaN	NaN	NaN	NaN	NaN	NaN	-1448.4	955.66	350.05	-1446.7	964.54	276.17	-1314.3	779.52	505.95	-1311	818.3	112.86	-1361.4	961.24	474.6	-1333.4	971.69	137.89	-1473.4	913.18	300.94	-1290.3	598.74	509.25	-1220.8	522.63	496.26	-1291.6	507.98	497.78	-1221.5	612.28	503.47	-1276.3	434.42	497.98	-1251.7	410.34	352.8	NaN	NaN	NaN	-1487.7	255.81	445.33	-1520.3	314.71	446.81	-1435.6	298.38	467.18	-1580.4	244.72	430.96	-1547.2	242.15	350.35	-1608.9	292.52	372.4	-1622.1	270.71	338.01	-1646.6	278.04	400.75	-1595.1	123.13	445.79	-1565.4	97.011	343.85	-1531.2	62.072	403.85	-1297.8	593.04	146.62	-1205	534.98	164.83	-1280	508.11	175.7	-1232.5	622.19	136.58	-1209	451.16	182.69	-1220	459.02	319.17	-1286.5	278.89	192.34	-1218.3	194.26	216.35	NaN	NaN	NaN	-1224.6	267.09	195.41	-1268.3	97.43	236.81	-1255	96.707	317.94	-1326.4	65.837	273.89	-1316.6	41.25	306.95	-1320.3	37.915	245.77	-1154.2	35.357	214.33	-1132.7	44.643	323.31	-1073.1	62.056	275.97	-1392.1	1394.2	297.57	-1464.6	1142.4	309.66
54	0.22083	-1191.1	1093.5	311.87	-1301.5	1337.9	448.59	-1295.7	1329.9	151.48	-1275.2	1620.3	302.55	NaN	NaN	NaN	NaN	NaN	NaN	-1443.1	956.92	349.8	-1441.5	965.72	275.92	-1308.7	780.94	505.67	-1306.9	818.87	112.76	-1356	962.54	474.31	-1328.3	972.56	137.59	-1468.5	914.51	300.76	-1281.3	600.54	509.4	-1211	525.3	496.26	-1281.5	509.77	497.88	-1212.9	614.95	503.44	-1264.8	436.37	498.03	-1240.2	412.38	352.75	NaN	NaN	NaN	-1474.6	255.83	445.48	-1508.1	314.51	446.8	-1422.6	298.82	467.1	-1567.4	243.97	431.02	-1534.4	241.4	350.53	-1597.1	290.74	372.1	-1609.8	268.34	337.89	-1634.3	276.07	400.6	-1580	122.39	446.85	-1549.7	96.075	344.97	-1514.8	62.302	405.33	-1295.4	593.7	146.84	-1203.1	534.83	164.8	-1278.3	508.61	175.86	-1229.8	622.26	136.59	-1207.8	451.1	182.68	-1218.2	459.04	319.19	-1285.8	279.25	192.37	-1218.1	194.24	216.34	NaN	NaN	NaN	-1224.1	267.12	195.36	-1268.2	97.523	236.85	-1254.9	96.805	317.97	-1326.3	65.91	273.91	-1316.6	41.332	306.95	-1320.2	38.018	245.77	-1154.2	35.361	214.33	-1132.7	44.701	323.44	-1073	62.021	275.97	-1386.7	1395.3	297.31	-1459.3	1143.5	309.14
55	0.225	-1185.9	1094.4	311.79	-1295.9	1338.9	448.6	-1290.4	1330.9	151.27	-1269.5	1621.4	302.31	NaN	NaN	NaN	NaN	NaN	NaN	-1437.7	958.21	349.54	-1436.2	966.92	275.67	-1303	782.38	505.37	-1302.9	819.42	112.69	-1350.6	963.89	474	-1323.3	973.41	137.28	-1463.5	915.87	300.59	-1272.3	602.36	509.55	-1201.2	528.01	496.2	-1271.4	511.62	497.95	-1204.3	617.65	503.35	-1253.3	438.36	498.01	-1228.8	414.54	352.65	NaN	NaN	NaN	-1461.4	255.68	445.63	-1495.8	314.1	446.77	-1409.6	299.16	467	-1554.4	242.96	431.1	-1521.5	240.42	350.73	-1585.2	288.63	371.83	-1597.4	265.64	337.8	-1622	273.72	400.47	-1564.7	121.42	447.92	-1533.7	94.959	346.08	-1498.2	62.401	406.76	-1293.1	594.36	147.09	-1201.2	534.68	164.78	-1276.6	509.13	176.04	-1227.2	622.33	136.62	-1206.6	451.07	182.67	-1216.3	459.07	319.23	-1285.2	279.61	192.41	-1218	194.22	216.37	NaN	NaN	NaN	-1223.7	267.16	195.31	-1268.1	97.619	236.9	-1254.8	96.904	318.01	-1326.3	65.992	273.93	-1316.5	41.419	306.95	-1320.2	38.126	245.76	-1154.2	35.364	214.32	-1132.7	44.754	323.56	-1073	61.981	275.98	-1381.3	1396.4	297.06	-1454	1144.7	308.63
56	0.22917	-1180.6	1095.4	311.7	-1290.3	1339.8	448.58	-1285.1	1331.8	151.07	-1263.9	1622.4	302.09	NaN	NaN	NaN	NaN	NaN	NaN	-1432.3	959.52	349.28	-1431	968.11	275.41	-1297.3	783.84	505.07	-1298.9	819.93	112.63	-1345.1	965.3	473.67	-1318.3	974.24	136.97	-1458.5	917.24	300.44	-1263.3	604.2	509.68	-1191.5	530.76	496.08	-1261.4	513.51	498	-1195.8	620.38	503.21	-1242	440.39	497.91	-1217.5	416.82	352.5	NaN	NaN	NaN	-1448.1	255.37	445.77	-1483.5	313.49	446.72	-1396.6	299.42	466.89	-1541.2	241.68	431.19	-1508.5	239.2	350.93	-1573.2	286.21	371.6	-1584.9	262.62	337.74	-1609.5	271.01	400.38	-1549.1	120.21	448.98	-1517.5	93.675	347.16	-1481.3	62.374	408.15	-1290.8	595.02	147.37	-1199.4	534.53	164.77	-1275	509.67	176.27	-1224.7	622.4	136.65	-1205.4	451.05	182.67	-1214.5	459.12	319.28	-1284.5	279.97	192.45	-1217.9	194.2	216.44	NaN	NaN	NaN	-1223.2	267.22	195.27	-1268	97.72	236.95	-1254.7	97.005	318.04	-1326.2	66.082	273.95	-1316.5	41.51	306.95	-1320.2	38.241	245.76	-1154.2	35.366	214.3	-1132.7	44.801	323.68	-1073	61.937	275.98	-1375.9	1397.4	296.82	-1448.7	1145.8	308.12
57	0.23333	-1175.5	1096.3	311.6	-1284.7	1340.8	448.54	-1279.8	1332.7	150.87	-1258.3	1623.4	301.89	NaN	NaN	NaN	NaN	NaN	NaN	-1426.9	960.84	349.03	-1425.8	969.31	275.15	-1291.5	785.31	504.76	-1295.1	820.43	112.58	-1339.7	966.75	473.33	-1313.2	975.04	136.66	-1453.6	918.61	300.31	-1254.4	606.06	509.8	-1181.9	533.55	495.89	-1251.4	515.44	498.02	-1187.3	623.13	503.01	-1230.8	442.45	497.73	-1206.4	419.2	352.31	NaN	NaN	NaN	-1434.8	254.88	445.9	-1471.2	312.68	446.66	-1383.6	299.59	466.8	-1528	240.16	431.3	-1495.4	237.75	351.14	-1561.2	283.48	371.4	-1572.3	259.27	337.73	-1596.9	267.94	400.31	-1533.3	118.79	450.04	-1501	92.235	348.22	-1464.1	62.232	409.49	-1288.5	595.69	147.69	-1197.6	534.38	164.77	-1273.4	510.2	176.53	-1222.2	622.46	136.7	-1204.3	451.05	182.67	-1212.6	459.17	319.35	-1283.9	280.34	192.48	-1217.8	194.17	216.55	NaN	NaN	NaN	-1222.8	267.29	195.24	-1267.8	97.826	237	-1254.6	97.108	318.08	-1326.2	66.181	273.98	-1316.5	41.607	306.95	-1320.1	38.362	245.76	-1154.2	35.367	214.29	-1132.7	44.841	323.78	-1072.9	61.887	275.98	-1370.5	1398.5	296.59	-1443.5	1146.9	307.61
58	0.2375	-1170.3	1097.2	311.49	-1279.3	1341.7	448.46	-1274.6	1333.7	150.69	-1252.7	1624.4	301.72	NaN	NaN	NaN	NaN	NaN	NaN	-1421.5	962.17	348.79	-1420.5	970.49	274.9	-1285.7	786.78	504.44	-1291.2	820.91	112.55	-1334.2	968.23	472.97	-1308.2	975.81	136.34	-1448.6	919.98	300.2	-1245.5	607.93	509.9	-1172.3	536.35	495.64	-1241.5	517.4	498.01	-1178.8	625.88	502.76	-1219.7	444.53	497.48	-1195.3	421.67	352.07	NaN	NaN	NaN	-1421.3	254.23	446.02	-1458.8	311.66	446.6	-1370.7	299.69	466.71	-1514.7	238.38	431.42	-1482.2	236.09	351.36	-1549.1	280.45	371.23	-1559.6	255.62	337.76	-1584.2	264.51	400.27	-1517.2	117.17	451.08	-1484.4	90.65	349.26	-1446.8	61.985	410.8	-1286.2	596.36	148.03	-1195.8	534.23	164.77	-1271.8	510.75	176.82	-1219.8	622.52	136.75	-1203.2	451.05	182.67	-1210.7	459.22	319.42	-1283.3	280.72	192.51	-1217.8	194.14	216.7	NaN	NaN	NaN	-1222.3	267.38	195.21	-1267.7	97.937	237.05	-1254.4	97.214	318.11	-1326.1	66.289	274	-1316.5	41.71	306.95	-1320.1	38.488	245.76	-1154.1	35.368	214.28	-1132.7	44.872	323.87	-1072.9	61.831	275.98	-1365.1	1399.5	296.36	-1438.2	1148	307.1
59	0.24167	-1165.1	1098.2	311.37	-1273.8	1342.6	448.35	-1269.3	1334.6	150.51	-1247.2	1625.4	301.57	NaN	NaN	NaN	NaN	NaN	NaN	-1416.2	963.49	348.57	-1415.3	971.66	274.67	-1279.9	788.26	504.11	-1287.5	821.38	112.52	-1328.7	969.73	472.6	-1303.2	976.55	136.03	-1443.6	921.33	300.12	-1236.7	609.8	509.98	-1162.7	539.16	495.33	-1231.7	519.39	497.98	-1170.4	628.64	502.46	-1208.7	446.63	497.15	-1184.3	424.21	351.79	NaN	NaN	NaN	-1407.7	253.43	446.13	-1446.4	310.44	446.54	-1357.9	299.71	466.64	-1501.4	236.37	431.56	-1468.9	234.23	351.59	-1536.9	277.12	371.09	-1546.8	251.66	337.82	-1571.2	260.72	400.27	-1500.9	115.37	452.11	-1467.4	88.935	350.29	-1429.2	61.645	412.06	-1284	597.03	148.41	-1194.1	534.09	164.77	-1270.2	511.31	177.15	-1217.4	622.58	136.8	-1202.1	451.08	182.67	-1208.9	459.27	319.5	-1282.7	281.1	192.54	-1217.8	194.09	216.89	NaN	NaN	NaN	-1221.8	267.48	195.18	-1267.6	98.054	237.11	-1254.3	97.324	318.14	-1326.1	66.405	274.02	-1316.5	41.82	306.96	-1320	38.619	245.76	-1154.1	35.367	214.27	-1132.6	44.896	323.94	-1072.8	61.77	275.98	-1359.7	1400.6	296.14	-1432.9	1149.1	306.6
60	0.24583	-1160	1099.1	311.23	-1268.5	1343.4	448.19	-1264.1	1335.5	150.33	-1241.7	1626.4	301.44	NaN	NaN	NaN	NaN	NaN	NaN	-1410.8	964.81	348.37	-1410.1	972.81	274.46	-1274	789.76	503.78	-1283.7	821.83	112.51	-1323.2	971.24	472.22	-1298.2	977.26	135.72	-1438.6	922.66	300.07	-1227.9	611.67	510.05	-1153.3	541.98	494.96	-1221.9	521.39	497.92	-1162	631.38	502.11	-1197.9	448.74	496.75	-1173.5	426.81	351.47	NaN	NaN	NaN	-1394.1	252.47	446.23	-1434	309.03	446.47	-1345.2	299.65	466.57	-1487.9	234.13	431.72	-1455.5	232.16	351.83	-1524.6	273.52	370.98	-1533.9	247.42	337.92	-1558.1	256.59	400.29	-1484.4	113.39	453.12	-1450.3	87.105	351.29	-1411.4	61.227	413.29	-1281.8	597.7	148.81	-1192.5	533.94	164.77	-1268.7	511.87	177.5	-1215	622.64	136.85	-1201	451.11	182.67	-1207	459.32	319.59	-1282.1	281.48	192.57	-1217.9	194.04	217.13	NaN	NaN	NaN	-1221.4	267.59	195.16	-1267.5	98.177	237.16	-1254.2	97.438	318.16	-1326	66.529	274.04	-1316.4	41.936	306.96	-1320	38.754	245.76	-1154.1	35.366	214.26	-1132.6	44.912	324	-1072.8	61.703	275.98	-1354.3	1401.5	295.93	-1427.7	1150.2	306.1
